<svg id="图层_1" data-name="图层 1" xmlns="http://www.w3.org/2000/svg" viewBox="0 0 1001 1000"><defs><style>.cls-1{fill:#231815;}.cls-2{fill:#f4e026;}</style></defs><title>vDODO LOGO </title><rect class="cls-1" x="0.25" width="1000" height="1000"/><path class="cls-2" d="M441.6,358.42c5.88,35.8,22.56,62.86,37.26,60.45s21.84-33.4,16-69.2-28.43-100.47-43.13-98.05S435.71,322.62,441.6,358.42Z"/><path class="cls-2" d="M493.64,320.34c-30.07,41-40.8,84.26-24,96.6s54.86-10.89,84.93-51.89,80.54-138.69,63.71-151S523.71,279.34,493.64,320.34Z"/><path class="cls-2" d="M500.25,364.11C379.94,364.11,282.4,461.65,282.4,582c0,15.87,7.58,29.64,20.73,41.31a6.76,6.76,0,0,0,11.31-5.21c0-.35,0-.71,0-1.07,0-99.51,82.69-180.19,184.69-180.19S683.8,517.48,683.8,617c0,.88,0,1.76-.09,2.62-.4,6,6.32,9.78,10.94,6,14.82-12.16,23.45-26.7,23.45-43.63C718.1,461.65,620.56,364.11,500.25,364.11Z"/><path class="cls-2" d="M561.89,587.84c-11.16,0-20.2-7.23-20.2-33.51s9-47.57,20.2-47.57,20.21,21.3,20.21,47.57S573.05,587.84,561.89,587.84Z"/><polygon class="cls-2" points="417.45 577.89 412.32 560.98 450.45 549.41 400.43 520.15 409.36 504.9 494.25 554.57 417.45 577.89"/></svg>