<?xml version="1.0" encoding="UTF-8"?>
<svg width="383px" height="383px" viewBox="0 0 383 383" version="1.1" xmlns="http://www.w3.org/2000/svg" xmlns:xlink="http://www.w3.org/1999/xlink">
    <title>WeChat </title>
    <defs>
        <polygon id="path-1" points="0 0.181703636 64.90367 0.181703636 64.90367 72.9998673 0 72.9998673"></polygon>
        <polygon id="path-3" points="0.202726548 0.451916079 262.497239 0.451916079 262.497239 198.974052 0.202726548 198.974052"></polygon>
    </defs>
    <g id="WeChat-" stroke="none" stroke-width="1" fill="none" fill-rule="evenodd">
        <circle id="椭圆形" fill="#FFFFFF" cx="191.5" cy="191.5" r="191.5"></circle>
        <g id="编组" transform="translate(54.000000, 29.000000)">
            <path d="M125.613538,260.841999 C124.671594,263.436992 123.375256,265.66108 121.725854,267.514265 C120.077785,269.368784 118.108629,270.835054 115.819718,271.913077 C113.530807,272.991099 111.074025,273.531445 108.44804,273.531445 C105.823387,273.531445 103.366605,272.991099 101.077694,271.913077 C98.788783,270.835054 96.8209593,269.368784 95.1715579,267.514265 C93.5221565,265.66108 92.2258176,263.436992 91.2838736,260.841999 C90.3419295,258.247007 89.8702913,255.466563 89.8702913,252.500667 C89.8702913,249.533437 90.3419295,246.752993 91.2838736,244.159335 C92.2258176,241.563008 93.5221565,239.33892 95.1715579,237.485735 C96.8209593,235.631216 98.788783,234.164946 101.077694,233.086923 C103.366605,232.008901 105.823387,231.468555 108.44804,231.468555 C111.074025,231.468555 113.530807,232.008901 115.819718,233.086923 C118.108629,234.164946 120.077785,235.631216 121.725854,237.485735 C123.375256,239.33892 124.671594,241.563008 125.613538,244.159335 C126.555483,246.752993 127.027121,249.533437 127.027121,252.500667 C127.027121,255.466563 126.555483,258.247007 125.613538,260.841999 M142.172835,238.192854 C140.287615,233.711322 137.712257,229.834177 134.448095,226.565421 C131.183932,223.29533 127.329555,220.717683 122.88763,218.829809 C118.444371,216.94327 113.665371,216 108.549296,216 C103.434552,216 98.6382319,216.94327 94.1629982,218.829809 C89.6851,220.717683 85.8147357,223.29533 82.5505731,226.565421 C79.2864104,229.834177 76.7110527,233.711322 74.8271645,238.192854 C72.9419441,242.67572 72,247.444101 72,252.500667 C72,257.555899 72.9419441,262.32428 74.8271645,266.807146 C76.7110527,271.290012 79.2864104,275.165823 82.5505731,278.434579 C85.8147357,281.70467 89.6851,284.282317 94.1629982,286.170191 C98.6382319,288.05673 103.434552,289 108.549296,289 C113.665371,289 118.444371,288.05673 122.88763,286.170191 C127.329555,284.282317 131.183932,281.70467 134.448095,278.434579 C137.712257,275.165823 140.287615,271.290012 142.172835,266.807146 C144.056724,262.32428 145,257.555899 145,252.500667 C145,247.444101 144.056724,242.67572 142.172835,238.192854" id="Fill-1" fill="#000000"></path>
            <g transform="translate(0.000000, 216.000000)">
                <mask id="mask-2" fill="white">
                    <use xlink:href="#path-1"></use>
                </mask>
                <g id="Clip-4"></g>
                <path d="M45.39197,45.0169764 C44.47417,47.5825945 43.21707,49.8017945 41.62197,51.6745764 C40.02557,53.5473582 38.14057,55.0206309 35.96697,56.0957218 C33.79337,57.1708127 31.48457,57.7083582 29.03797,57.7083582 L17.52387,57.7083582 L17.52387,15.4732127 L29.03797,15.4732127 C31.48457,15.4732127 33.79337,16.0280127 35.96697,17.1376127 C38.14057,18.24854 40.02557,19.7563218 41.62197,21.6636127 C43.21707,23.5695764 44.47417,25.8246127 45.39197,28.42474 C46.30847,31.0248673 46.76737,33.8174491 46.76737,36.7985036 C46.76737,39.7118673 46.30847,42.4513582 45.39197,45.0169764 M62.10217,22.3909582 C60.23277,17.9180491 57.68607,14.0517036 54.46077,10.7919218 C51.23287,7.53346727 47.42907,4.95059455 43.04807,3.04197636 C38.66707,1.13468545 33.99617,0.181703636 29.03797,0.181703636 L-0.00013,0.181703636 L-0.00013,72.9998673 L29.03797,72.9998673 C33.99617,72.9998673 38.66707,72.06414 43.04807,70.1913582 C47.42907,68.3185764 51.23287,65.7529582 54.46077,62.4931764 C57.68607,59.2333945 60.23277,55.3856309 62.10217,50.9459036 C63.96897,46.5088309 64.90367,41.7917036 64.90367,36.7985036 C64.90367,31.6672673 63.96897,26.8638673 62.10217,22.3909582" id="Fill-3" fill="#000000" mask="url(#mask-2)"></path>
            </g>
            <path d="M279.613538,260.841999 C278.671594,263.436992 277.375256,265.66108 275.727186,267.514265 C274.077785,269.368784 272.108629,270.835054 269.819718,271.913077 C267.53214,272.991099 265.075358,273.531445 262.449372,273.531445 C259.823387,273.531445 257.367937,272.991099 255.079026,271.913077 C252.790115,270.835054 250.822292,269.368784 249.171558,267.514265 C247.523489,265.66108 246.22715,263.436992 245.283874,260.841999 C244.341929,258.247007 243.871624,255.466563 243.871624,252.500667 C243.871624,249.533437 244.341929,246.752993 245.283874,244.159335 C246.22715,241.563008 247.523489,239.33892 249.171558,237.485735 C250.822292,235.631216 252.790115,234.164946 255.079026,233.086923 C257.367937,232.008901 259.823387,231.468555 262.449372,231.468555 C265.075358,231.468555 267.53214,232.008901 269.819718,233.086923 C272.108629,234.164946 274.077785,235.631216 275.727186,237.485735 C277.375256,239.33892 278.671594,241.563008 279.613538,244.159335 C280.556815,246.752993 281.028453,249.533437 281.028453,252.500667 C281.028453,255.466563 280.556815,258.247007 279.613538,260.841999 M296.172835,238.192854 C294.288947,233.711322 291.71359,229.834177 288.449427,226.565421 C285.185264,223.29533 281.330888,220.717683 276.88763,218.829809 C272.445704,216.94327 267.665371,216 262.549296,216 C257.435885,216 252.638232,216.94327 248.162998,218.829809 C243.686432,220.717683 239.816068,223.29533 236.551905,226.565421 C233.28641,229.834177 230.712385,233.711322 228.827165,238.192854 C226.941944,242.67572 226,247.444101 226,252.500667 C226,257.555899 226.941944,262.32428 228.827165,266.807146 C230.712385,271.290012 233.28641,275.165823 236.551905,278.434579 C239.816068,281.70467 243.686432,284.282317 248.162998,286.170191 C252.638232,288.05673 257.435885,289 262.549296,289 C267.665371,289 272.445704,288.05673 276.88763,286.170191 C281.330888,284.282317 285.185264,281.70467 288.449427,278.434579 C291.71359,275.165823 294.288947,271.290012 296.172835,266.807146 C298.058056,262.32428 299,257.555899 299,252.500667 C299,247.444101 298.058056,242.67572 296.172835,238.192854" id="Fill-5" fill="#000000"></path>
            <path d="M200.458988,260.947232 C199.541112,263.519257 198.282123,265.743999 196.684627,267.621457 C195.084527,269.498915 193.196695,270.975867 191.01983,272.053643 C188.842964,273.131418 186.530696,273.670306 184.081723,273.670306 L172.550325,273.670306 L172.550325,231.329694 L184.081723,231.329694 C186.530696,231.329694 188.842964,231.885879 191.01983,232.99825 C193.196695,234.111952 195.084527,235.623499 196.684627,237.535552 C198.282123,239.446275 199.541112,241.706943 200.458988,244.313563 C201.376865,246.920183 201.836455,249.719738 201.836455,252.708237 C201.836455,255.628876 201.376865,258.375207 200.458988,260.947232 M217.194291,238.264714 C215.323385,233.780635 212.771557,229.904635 209.541412,226.636713 C206.308663,223.370122 202.499149,220.780799 198.111567,218.867415 C193.723986,216.955362 189.047371,216 184.081723,216 L155,216 L155,289 L184.081723,289 C189.047371,289 193.723986,288.061936 198.111567,286.184478 C202.499149,284.307019 206.308663,281.734994 209.541412,278.467073 C212.771557,275.199151 215.323385,271.341779 217.194291,266.890965 C219.063896,262.442812 220,257.713906 220,252.708237 C220,247.564187 219.063896,242.748792 217.194291,238.264714" id="Fill-7" fill="#000000"></path>
            <g transform="translate(18.000000, 0.000000)">
                <mask id="mask-4" fill="white">
                    <use xlink:href="#path-3"></use>
                </mask>
                <g id="Clip-10"></g>
                <path d="M162.415306,52.8081016 C163.550462,51.0359075 164.580145,49.0692843 165.446344,46.9423886 C166.940109,43.2745116 167.765437,39.6132031 167.964518,36.2790083 C168.77798,29.2427801 167.067995,23.5281436 163.046827,21.825576 C159.092899,20.1519101 153.911526,22.7740743 149.471102,28.0630689 C149.479013,27.7123085 149.485605,27.361548 149.485605,27.0068464 C149.485605,12.3419069 142.781462,0.451521966 134.511041,0.451521966 C126.24062,0.451521966 119.536476,12.3419069 119.536476,27.0068464 C119.536476,28.0473044 119.573392,29.0719978 119.639313,30.0809267 C114.608239,23.2246767 107.995066,19.7118174 103.271183,21.9753389 C97.363363,24.8076967 96.6487818,35.5932519 101.6759,46.067458 C102.518368,47.8252014 104.408976,50.8454196 105.434703,52.3391073 C41.3056508,62.4967094 4.79872328,114.168846 0.202726548,198.974052 L36.0741778,198.974052 C39.8567121,129.159586 72.5283687,89.7246532 131.552516,90.9345797 C185.753899,92.0459779 227.177198,127.390019 226.620827,198.974052 L262.489641,198.974052 C263.144894,114.520921 221.349801,65.9333736 162.415306,52.8081016" id="Fill-9" fill="#000000" mask="url(#mask-4)"></path>
            </g>
            <path d="M123.000646,139 C119.134213,139 116,142.215981 116,146.180816 L116,163.819184 C116,167.78534 119.134213,171 123.000646,171 C126.865787,171 130,167.78534 130,163.819184 L130,146.180816 C130,142.215981 126.865787,139 123.000646,139" id="Fill-11" fill="#000000"></path>
            <path d="M177.999354,139 C174.134213,139 171,142.215981 171,146.180816 L171,163.819184 C171,167.78534 174.134213,171 177.999354,171 C181.865787,171 185,167.78534 185,163.819184 L185,146.180816 C185,142.215981 181.865787,139 177.999354,139" id="Fill-13" fill="#000000"></path>
        </g>
    </g>
</svg>