<?xml version="1.0" encoding="UTF-8"?>
<svg width="50px" height="37px" viewBox="0 0 50 37" version="1.1" xmlns="http://www.w3.org/2000/svg" xmlns:xlink="http://www.w3.org/1999/xlink">
    <title>形状结合</title>
    <g id="页面-1" stroke="none" stroke-width="1" fill="none" fill-rule="evenodd">
        <g id="买卖-买出" transform="translate(-240.000000, -15.000000)" fill="#000000">
            <g id="编组-17" transform="translate(240.000000, 15.000000)">
                <path d="M26.5560205,1.40197128 C26.9373408,2.20362964 27.0263359,3.54213366 26.8230057,5.41748334 C26.9829405,5.1159393 27.1646235,4.83970318 27.3670131,4.58877864 C28.8624471,2.73472516 30.6254556,4.3369125 30.7797758,5.68087256 C30.8588669,6.36966932 30.4435325,7.53770122 29.5337726,9.18496826 C36.3048963,10.4683307 42.5565183,14.7730162 45.3763417,19.6486545 C48.0910431,24.3425305 48.430087,30.895487 49.364007,36.7722499 L44.2458603,36.7721522 C44.104206,35.8358061 43.946812,34.7577427 43.7827459,33.4733904 C42.8950262,26.5240854 40.9552991,21.7210373 37.4890995,19.0410681 C34.2619482,16.5459244 30.5496518,15.1534494 26.636999,15.1029773 L26.2014498,15.1029041 C26.0560015,15.1047287 25.9102929,15.1084063 25.7643383,15.1139492 C21.5316568,15.2746913 14.0576338,16.581307 10.9518059,23.7386465 C9.23364957,27.6981149 8.44727319,32.3650197 8.16835461,36.7720262 L0.0972924861,36.771411 C0.908427728,31.1906569 1.64910653,25.2253073 4.26465049,19.6486545 C7.08600656,13.6331856 12.7218964,10.6238217 18.8391105,9.432113 C17.9772239,8.21149489 17.5071292,7.04331013 17.4269597,5.92794643 C17.2561895,3.55209399 19.6382614,3.52149074 20.6677026,4.39915476 C20.9105222,4.60617384 21.1474268,4.98017548 21.3784166,5.52115967 C21.1859774,3.99160095 21.3047345,2.81631277 21.7341162,1.99613396 C22.9704298,-0.365397074 25.5478513,-0.717525771 26.5560205,1.40197128 Z M32.53824,26.6112 C33.273088,26.6112 33.8688,27.206912 33.8688,27.94176 L33.8688,31.08672 C33.8688,31.821568 33.273088,32.41728 32.53824,32.41728 C31.803392,32.41728 31.20768,31.821568 31.20768,31.08672 L31.20768,27.94176 C31.20768,27.206912 31.803392,26.6112 32.53824,26.6112 Z M21.168,26.6112 C21.902848,26.6112 22.49856,27.206912 22.49856,27.94176 L22.49856,31.08672 C22.49856,31.821568 21.902848,32.41728 21.168,32.41728 C20.433152,32.41728 19.83744,31.821568 19.83744,31.08672 L19.83744,27.94176 C19.83744,27.206912 20.433152,26.6112 21.168,26.6112 Z" id="形状结合"></path>
            </g>
        </g>
    </g>
</svg>