<svg id="图层_1" data-name="图层 1" xmlns="http://www.w3.org/2000/svg" viewBox="0 0 1001 1000"><defs><style>.cls-1{fill:#f4e026;}</style></defs><title>vDODO LOGO </title><path class="cls-1" d="M451.49,368c5.23,31.85,20.08,55.93,33.16,53.78s19.43-29.71,14.19-61.56-25.29-89.4-38.37-87.25S446.26,336.16,451.49,368Z"/><path class="cls-1" d="M497.79,334.13c-26.75,36.48-36.3,75-21.32,85.95s48.81-9.69,75.56-46.18,71.67-123.39,56.69-134.38S524.55,297.64,497.79,334.13Z"/><path class="cls-1" d="M503.68,373.08c-107,0-193.83,86.78-193.83,193.83,0,14.11,6.74,26.36,18.44,36.75A6,6,0,0,0,338.35,599c0-.32,0-.64,0-1,0-88.54,73.57-160.32,164.33-160.32S667,509.53,667,598.07c0,.79,0,1.56-.08,2.33-.36,5.32,5.62,8.7,9.74,5.33,13.18-10.83,20.86-23.76,20.86-38.82C697.51,459.86,610.73,373.08,503.68,373.08Z"/><path class="cls-1" d="M275.54,726.94l-14.72-64h22.61l7.9,39.21,26.35-39.21h23.15l-44.69,64Z"/><path class="cls-1" d="M333.2,726.94l19.94-84.72h32.24a50.66,50.66,0,0,1,17.39,2.91,43.6,43.6,0,0,1,13.85,7.93,36.49,36.49,0,0,1,9.16,12,34.33,34.33,0,0,1,3.35,15.07,39.42,39.42,0,0,1-4.35,18,48.91,48.91,0,0,1-11.64,14.94A56.24,56.24,0,0,1,396,723.19a57.47,57.47,0,0,1-20.67,3.75Zm49.37-66.32H371.33L360,708.55h17a29.79,29.79,0,0,0,11.17-2.12,28.85,28.85,0,0,0,9.1-5.69,27.17,27.17,0,0,0,6.09-8.47,24.68,24.68,0,0,0,2.27-10.47A19.75,19.75,0,0,0,399,666.67Q392.47,660.63,382.57,660.62Z"/><path class="cls-1" d="M535.75,681a41.83,41.83,0,0,1-4.15,18.34,47.74,47.74,0,0,1-11.3,15.07,55.64,55.64,0,0,1-37.12,13.91,53,53,0,0,1-18.13-3,44.89,44.89,0,0,1-14.45-8.35A38.52,38.52,0,0,1,441,704.19a37,37,0,0,1-3.48-16,42,42,0,0,1,4.15-18.33A47.77,47.77,0,0,1,453,654.81a55.58,55.58,0,0,1,37.12-13.92,52.82,52.82,0,0,1,18.13,3,45,45,0,0,1,14.45,8.35A38.5,38.5,0,0,1,532.27,665,37,37,0,0,1,535.75,681Zm-23.14,1.33a20.94,20.94,0,0,0-6.76-15.91Q499.1,660,488.66,660a28.38,28.38,0,0,0-10.9,2.12,27.8,27.8,0,0,0-8.9,5.75,27.45,27.45,0,0,0-5.95,8.53,25.24,25.24,0,0,0-2.21,10.47,20.93,20.93,0,0,0,6.76,15.92q6.75,6.35,17.19,6.35a28.23,28.23,0,0,0,10.9-2.12,27.13,27.13,0,0,0,14.85-14.28A25.21,25.21,0,0,0,512.61,682.28Z"/><path class="cls-1" d="M537.62,726.94l19.94-84.72H589.8a50.66,50.66,0,0,1,17.39,2.91A43.6,43.6,0,0,1,621,653.06a36.49,36.49,0,0,1,9.16,12,34.33,34.33,0,0,1,3.35,15.07,39.42,39.42,0,0,1-4.35,18,48.91,48.91,0,0,1-11.64,14.94,56.31,56.31,0,0,1-17.12,10.11,57.55,57.55,0,0,1-20.67,3.75ZM587,660.62H575.75l-11.37,47.93h17a29.75,29.75,0,0,0,11.17-2.12,28.74,28.74,0,0,0,9.1-5.69,27.17,27.17,0,0,0,6.09-8.47A24.68,24.68,0,0,0,610,681.8a19.74,19.74,0,0,0-6.55-15.13Q596.9,660.63,587,660.62Z"/><path class="cls-1" d="M740.18,681A42,42,0,0,1,736,699.29a47.92,47.92,0,0,1-11.31,15.07A54.75,54.75,0,0,1,708,724.52a55.41,55.41,0,0,1-20.4,3.75,53.06,53.06,0,0,1-18.13-3A45,45,0,0,1,655,716.9a38.36,38.36,0,0,1-9.56-12.71,37,37,0,0,1-3.48-16,42,42,0,0,1,4.14-18.33,47.92,47.92,0,0,1,11.31-15.07,55.58,55.58,0,0,1,37.12-13.92,52.82,52.82,0,0,1,18.13,3,44.89,44.89,0,0,1,14.45,8.35A38.52,38.52,0,0,1,736.7,665,37,37,0,0,1,740.18,681ZM717,682.28a20.9,20.9,0,0,0-6.76-15.91Q703.52,660,693.08,660a28.42,28.42,0,0,0-10.9,2.12,27.8,27.8,0,0,0-8.9,5.75,27.45,27.45,0,0,0-5.95,8.53,25.24,25.24,0,0,0-2.21,10.47,20.93,20.93,0,0,0,6.76,15.92q6.75,6.35,17.19,6.35A28.23,28.23,0,0,0,700,707a27.77,27.77,0,0,0,8.9-5.74,27.49,27.49,0,0,0,6-8.54A25.21,25.21,0,0,0,717,682.28Z"/><path class="cls-1" d="M558.52,572.13c-9.93,0-18-6.43-18-29.81s8-42.33,18-42.33,18,19,18,42.33S568.45,572.13,558.52,572.13Z"/><polygon class="cls-1" points="430.01 563.28 425.44 548.24 459.36 537.94 414.86 511.91 422.8 498.34 498.34 542.53 430.01 563.28"/></svg>