<svg id="图层_1" data-name="图层 1" xmlns="http://www.w3.org/2000/svg" viewBox="0 0 1001 1000"><defs><style>.cls-1{fill:#f4e026;}.cls-2{fill:#231815;}</style></defs><title>vDODO LOGO </title><rect class="cls-1" width="1001" height="1001"/><path class="cls-2" d="M448.2,358.42c5.88,35.8,22.57,62.86,37.26,60.45s21.85-33.4,16-69.2S473,249.2,458.29,251.62,442.32,322.62,448.2,358.42Z"/><path class="cls-2" d="M500.24,320.34c-30.07,41-40.8,84.26-24,96.6s54.85-10.89,84.92-51.89,80.55-138.69,63.71-151S530.31,279.34,500.24,320.34Z"/><path class="cls-2" d="M506.85,364.11C386.54,364.11,289,461.65,289,582c0,15.87,7.58,29.64,20.74,41.31a6.76,6.76,0,0,0,11.3-5.21c0-.35,0-.71,0-1.07,0-99.51,82.69-180.19,184.69-180.19S690.41,517.48,690.41,617c0,.88,0,1.76-.09,2.62-.41,6,6.31,9.78,10.94,6,14.82-12.16,23.44-26.7,23.44-43.63C724.7,461.65,627.17,364.11,506.85,364.11Z"/><path class="cls-2" d="M568.5,587.84c-11.16,0-20.21-7.23-20.21-33.51s9.05-47.57,20.21-47.57,20.2,21.3,20.2,47.57S579.66,587.84,568.5,587.84Z"/><polygon class="cls-2" points="424.06 577.89 418.93 560.98 457.05 549.41 407.04 520.15 415.96 504.9 500.86 554.57 424.06 577.89"/></svg>