<svg id="图层_1" data-name="图层 1" xmlns="http://www.w3.org/2000/svg" viewBox="0 0 1001 1000"><defs><style>.cls-1{fill:#f4e026;}</style></defs><title>vDODO LOGO </title><path class="cls-1" d="M441.85,358.42c5.88,35.8,22.56,62.86,37.26,60.45s21.84-33.4,16-69.2-28.43-100.47-43.13-98.05S436,322.62,441.85,358.42Z"/><path class="cls-1" d="M493.89,320.34c-30.07,41-40.8,84.26-24,96.6s54.86-10.89,84.93-51.89,80.54-138.69,63.71-151S524,279.34,493.89,320.34Z"/><path class="cls-1" d="M500.5,364.11c-120.31,0-217.85,97.54-217.85,217.85,0,15.87,7.58,29.64,20.73,41.31a6.76,6.76,0,0,0,11.31-5.21c0-.35,0-.71,0-1.07,0-99.51,82.69-180.19,184.69-180.19S684.05,517.48,684.05,617c0,.88,0,1.76-.09,2.62-.4,6,6.32,9.78,10.94,6,14.82-12.16,23.45-26.7,23.45-43.63C718.35,461.65,620.81,364.11,500.5,364.11Z"/><path class="cls-1" d="M562.14,587.84c-11.16,0-20.2-7.23-20.2-33.51s9-47.57,20.2-47.57,20.21,21.3,20.21,47.57S573.3,587.84,562.14,587.84Z"/><polygon class="cls-1" points="417.7 577.89 412.57 560.98 450.7 549.41 400.68 520.15 409.61 504.9 494.5 554.57 417.7 577.89"/></svg>