<svg id="图层_1" data-name="图层 1" xmlns="http://www.w3.org/2000/svg" viewBox="0 0 1001 1000"><defs><style>.cls-1{fill:#f4e026;}.cls-2{fill:#231815;}</style></defs><title>vDODO LOGO </title><rect class="cls-1" width="1001" height="1001"/><path class="cls-2" d="M454.23,368c5.24,31.85,20.08,55.93,33.16,53.78s19.43-29.71,14.2-61.56-25.3-89.4-38.38-87.25S449,336.16,454.23,368Z"/><path class="cls-2" d="M500.54,334.13c-26.76,36.48-36.3,75-21.33,85.95s48.81-9.69,75.57-46.18,71.66-123.39,56.68-134.38S527.29,297.64,500.54,334.13Z"/><path class="cls-2" d="M506.42,373.08c-107,0-193.83,86.78-193.83,193.83,0,14.11,6.74,26.36,18.45,36.75A6,6,0,0,0,341.1,599c0-.32,0-.64,0-1,0-88.54,73.57-160.32,164.33-160.32s164.33,71.78,164.33,160.32c0,.79,0,1.56-.08,2.33-.37,5.32,5.61,8.7,9.73,5.33,13.19-10.83,20.86-23.76,20.86-38.82C700.25,459.86,613.47,373.08,506.42,373.08Z"/><path class="cls-2" d="M278.28,726.94l-14.71-64h22.61l7.89,39.21,26.36-39.21h23.14l-44.68,64Z"/><path class="cls-2" d="M336,726.94l19.93-84.72h32.24a50.66,50.66,0,0,1,17.39,2.91,43.49,43.49,0,0,1,13.85,7.93,36.65,36.65,0,0,1,9.17,12,34.46,34.46,0,0,1,3.34,15.07,39.42,39.42,0,0,1-4.35,18,48.91,48.91,0,0,1-11.64,14.94,56.31,56.31,0,0,1-17.12,10.11,57.55,57.55,0,0,1-20.67,3.75Zm49.36-66.32H374.07L362.7,708.55h17a29.75,29.75,0,0,0,11.17-2.12,28.74,28.74,0,0,0,9.1-5.69,27.17,27.17,0,0,0,6.09-8.47,24.68,24.68,0,0,0,2.27-10.47,19.74,19.74,0,0,0-6.55-15.13Q395.22,660.63,385.31,660.62Z"/><path class="cls-2" d="M538.5,681a42,42,0,0,1-4.15,18.34A47.92,47.92,0,0,1,523,714.36a54.75,54.75,0,0,1-16.72,10.16,55.41,55.41,0,0,1-20.4,3.75,53.06,53.06,0,0,1-18.13-3,45,45,0,0,1-14.45-8.35,38.36,38.36,0,0,1-9.56-12.71,37,37,0,0,1-3.48-16,41.82,41.82,0,0,1,4.15-18.33,47.74,47.74,0,0,1,11.3-15.07,55.58,55.58,0,0,1,37.13-13.92,52.81,52.81,0,0,1,18.12,3,44.89,44.89,0,0,1,14.45,8.35A38.52,38.52,0,0,1,535,665,37,37,0,0,1,538.5,681Zm-23.15,1.33a20.93,20.93,0,0,0-6.75-15.91Q501.83,660,491.4,660a28.42,28.42,0,0,0-10.9,2.12,27.91,27.91,0,0,0-8.9,5.75,27.62,27.62,0,0,0-6,8.53,25.24,25.24,0,0,0-2.21,10.47,20.93,20.93,0,0,0,6.76,15.92q6.75,6.35,17.19,6.35a28.23,28.23,0,0,0,10.9-2.12,27.77,27.77,0,0,0,8.9-5.74,27.49,27.49,0,0,0,5.95-8.54A25.05,25.05,0,0,0,515.35,682.28Z"/><path class="cls-2" d="M540.37,726.94l19.93-84.72h32.24a50.71,50.71,0,0,1,17.4,2.91,43.54,43.54,0,0,1,13.84,7.93A36.52,36.52,0,0,1,633,665a34.32,34.32,0,0,1,3.34,15.07,39.42,39.42,0,0,1-4.35,18,48.76,48.76,0,0,1-11.64,14.94,56.19,56.19,0,0,1-17.12,10.11,57.51,57.51,0,0,1-20.67,3.75Zm49.37-66.32H578.5l-11.38,47.93h17a29.82,29.82,0,0,0,11.17-2.12,28.8,28.8,0,0,0,9.09-5.69,27,27,0,0,0,6.09-8.47,24.54,24.54,0,0,0,2.28-10.47,19.75,19.75,0,0,0-6.56-15.13Q599.64,660.63,589.74,660.62Z"/><path class="cls-2" d="M742.92,681a41.83,41.83,0,0,1-4.15,18.34,47.74,47.74,0,0,1-11.3,15.07,55.69,55.69,0,0,1-37.13,13.91,53.1,53.1,0,0,1-18.13-3,45,45,0,0,1-14.45-8.35,38.63,38.63,0,0,1-9.56-12.71,37,37,0,0,1-3.48-16,41.82,41.82,0,0,1,4.15-18.33,47.74,47.74,0,0,1,11.3-15.07,55.63,55.63,0,0,1,37.13-13.92,52.86,52.86,0,0,1,18.13,3,45,45,0,0,1,14.45,8.35A38.63,38.63,0,0,1,739.44,665,37,37,0,0,1,742.92,681Zm-23.15,1.33A20.93,20.93,0,0,0,713,666.37Q706.26,660,695.83,660a28.47,28.47,0,0,0-10.91,2.12,27.31,27.31,0,0,0-14.85,14.28,25.24,25.24,0,0,0-2.2,10.47,21,21,0,0,0,6.75,15.92q6.75,6.35,17.19,6.35A28.28,28.28,0,0,0,702.72,707a27.22,27.22,0,0,0,14.85-14.28A25.2,25.2,0,0,0,719.77,682.28Z"/><path class="cls-2" d="M561.27,572.13c-9.93,0-18-6.43-18-29.81s8.05-42.33,18-42.33,18,19,18,42.33S571.2,572.13,561.27,572.13Z"/><polygon class="cls-2" points="432.75 563.28 428.19 548.24 462.11 537.94 417.61 511.91 425.55 498.34 501.09 542.53 432.75 563.28"/></svg>