<svg id="图层_1" data-name="图层 1" xmlns="http://www.w3.org/2000/svg" xmlns:xlink="http://www.w3.org/1999/xlink" viewBox="0 0 1000 1000"><defs><style>.cls-1{fill:none;}.cls-2{clip-path:url(#clip-path);}.cls-3{clip-path:url(#clip-path-2);}.cls-4{fill:#f3ec32;}</style><clipPath id="clip-path"><rect class="cls-1" x="140.17" y="368.08" width="719.66" height="263.84"/></clipPath><clipPath id="clip-path-2"><rect class="cls-1" x="140.17" y="368.08" width="719.66" height="263.84"/></clipPath></defs><title>logo2</title><g class="cls-2"><g class="cls-3"><path class="cls-4" d="M311.58,480.8a25.75,25.75,0,0,0,2.11-4.09,23.77,23.77,0,0,0,1.75-7.43c.57-4.91-.62-8.9-3.42-10.08s-6.37.66-9.47,4.35c0-.25,0-.49,0-.74,0-10.23-4.68-18.52-10.44-18.52s-10.44,8.29-10.44,18.52c0,.73,0,1.44.07,2.14-3.5-4.78-8.11-7.23-11.41-5.65-4.11,2-4.61,9.5-1.11,16.8a43.16,43.16,0,0,0,2.62,4.37c-44.69,7.09-70.13,43.12-73.34,102.25h25c2.64-48.68,25.41-76.18,66.55-75.33,37.77.77,66.64,25.42,66.25,75.33h25c.46-58.89-28.67-92.77-69.74-101.92"/><path class="cls-4" d="M271.65,540.86a5,5,0,0,0-5,5v12.23a5,5,0,0,0,10,0V545.84a5,5,0,0,0-5-5"/><path class="cls-4" d="M311,540.86a5,5,0,0,0-5,5v12.23a5,5,0,1,0,10,0V545.84a5,5,0,0,0-5-5"/><path class="cls-4" d="M591.32,516.23A46.69,46.69,0,0,0,566,490.81a49.87,49.87,0,0,0-37.75,0,46.6,46.6,0,0,0-25.42,25.42,49.39,49.39,0,0,0,0,37.56,46.54,46.54,0,0,0,25.42,25.41,49.75,49.75,0,0,0,37.75,0,48.39,48.39,0,0,0,25.35-63M569.56,546a27,27,0,0,1-5.11,8.76,24,24,0,0,1-7.77,5.77,23.18,23.18,0,0,1-19.37,0,24,24,0,0,1-7.77-5.77,27,27,0,0,1-5.11-8.76,33.33,33.33,0,0,1,0-21.9,26.83,26.83,0,0,1,5.11-8.76,23.91,23.91,0,0,1,7.77-5.77,23.08,23.08,0,0,1,19.37,0,23.91,23.91,0,0,1,7.77,5.77,26.83,26.83,0,0,1,5.11,8.76,33.33,33.33,0,0,1,0,21.9"/><path class="cls-4" d="M486.43,516.31A47.44,47.44,0,0,0,476.14,501a49,49,0,0,0-15.37-10.23A47.78,47.78,0,0,0,441.89,487H402.78v96.07h39.11a48.45,48.45,0,0,0,18.88-3.7A47.16,47.16,0,0,0,486.43,554a46.66,46.66,0,0,0,3.78-18.66,47.9,47.9,0,0,0-3.78-19m-22.51,29.85a27.66,27.66,0,0,1-5.08,8.79,23.67,23.67,0,0,1-7.61,5.83,21.13,21.13,0,0,1-9.34,2.13h-15.5V507.18h15.5a20.53,20.53,0,0,1,9.34,2.2,24,24,0,0,1,7.61,6,28.32,28.32,0,0,1,5.08,8.92,32.24,32.24,0,0,1,1.86,11.05,31.25,31.25,0,0,1-1.86,10.84"/><path class="cls-4" d="M795.72,516.23a46.77,46.77,0,0,0-25.35-25.42,47.88,47.88,0,0,0-18.85-3.71,48.39,48.39,0,0,0-18.91,3.71A47.6,47.6,0,0,0,703.48,535a47.9,47.9,0,0,0,3.72,18.78,46.48,46.48,0,0,0,25.41,25.41,48.22,48.22,0,0,0,18.91,3.72,47.85,47.85,0,0,0,34-13.87,47.2,47.2,0,0,0,10.16-15.26,49.39,49.39,0,0,0,0-37.56M774,546a26.86,26.86,0,0,1-5.11,8.76,23.9,23.9,0,0,1-7.76,5.77,23.21,23.21,0,0,1-19.38,0,24.12,24.12,0,0,1-7.76-5.77,26.86,26.86,0,0,1-5.11-8.76,33.16,33.16,0,0,1,0-21.9,26.65,26.65,0,0,1,5.11-8.76,24,24,0,0,1,7.76-5.77,23.11,23.11,0,0,1,19.38,0,23.76,23.76,0,0,1,7.76,5.77,26.65,26.65,0,0,1,5.11,8.76,33.16,33.16,0,0,1,0,21.9"/><path class="cls-4" d="M690.83,516.31a47.47,47.47,0,0,0-10.3-15.3,48.86,48.86,0,0,0-15.37-10.23A47.7,47.7,0,0,0,646.29,487H607.17v96.07h39.12a48.36,48.36,0,0,0,18.87-3.7A47.22,47.22,0,0,0,690.83,554a46.83,46.83,0,0,0,3.77-18.66,48.06,48.06,0,0,0-3.77-19m-22.51,29.85a27.85,27.85,0,0,1-5.08,8.79,23.71,23.71,0,0,1-7.62,5.83,21.12,21.12,0,0,1-9.33,2.13H630.78V507.18h15.51a20.52,20.52,0,0,1,9.33,2.2,24,24,0,0,1,7.62,6,28.52,28.52,0,0,1,5.08,8.92,32.48,32.48,0,0,1,1.85,11.05,31.48,31.48,0,0,1-1.85,10.84"/></g></g></svg>