<svg id="图层_1" data-name="图层 1" xmlns="http://www.w3.org/2000/svg" xmlns:xlink="http://www.w3.org/1999/xlink" viewBox="0 0 1000 1000"><defs><style>.cls-1{fill:none;}.cls-2{clip-path:url(#clip-path);}.cls-3{fill:#fff;}.cls-4{clip-path:url(#clip-path-3);}</style><clipPath id="clip-path"><rect class="cls-1" x="72.05" y="330.21" width="501.82" height="370.09"/></clipPath><clipPath id="clip-path-3"><rect class="cls-1" x="328.93" y="279.11" width="599.02" height="441.77"/></clipPath></defs><title>logo2</title><g class="cls-2"><g class="cls-2"><path class="cls-3" d="M339.11,437.52a28.38,28.38,0,0,0,2.32-4.5,26.08,26.08,0,0,0,1.92-8.18c.62-5.4-.68-9.78-3.76-11.09s-7,.73-10.38,4.79c0-.27,0-.54,0-.81,0-11.25-5.13-20.38-11.45-20.38s-11.45,9.13-11.45,20.38c0,.8,0,1.58.08,2.36-3.85-5.26-8.91-8-12.52-6.22-4.51,2.17-5.06,10.45-1.22,18.48a46,46,0,0,0,2.88,4.81c-49,7.8-76.94,47.44-80.45,112.51h27.42c2.89-53.57,27.87-83.82,73-82.89,41.44.85,73.11,28,72.68,82.89h27.43c.5-64.8-31.45-102.08-76.51-112.15"/><path class="cls-3" d="M295.72,503.55a5.48,5.48,0,0,0-5.48,5.48v13.46a5.48,5.48,0,1,0,11,0V509a5.48,5.48,0,0,0-5.48-5.48"/><path class="cls-3" d="M338.21,503.55a5.48,5.48,0,0,0-5.48,5.48v13.46a5.48,5.48,0,0,0,11,0V509a5.48,5.48,0,0,0-5.48-5.48"/></g></g><g class="cls-4"><g class="cls-4"><path class="cls-3" d="M623,485.44a46.16,46.16,0,0,0-43-28.34,46.88,46.88,0,0,0-18.39,3.62,45.2,45.2,0,0,0-24.73,24.72,48,48,0,0,0,0,36.53,45.2,45.2,0,0,0,24.73,24.72,48.37,48.37,0,0,0,36.72,0A47.09,47.09,0,0,0,623,485.44m-21.17,28.92a26.14,26.14,0,0,1-5,8.52,23.46,23.46,0,0,1-7.55,5.61,22.49,22.49,0,0,1-18.85,0,23.25,23.25,0,0,1-7.55-5.61,26,26,0,0,1-5-8.52,32.24,32.24,0,0,1,0-21.3,25.76,25.76,0,0,1,5-8.52,23.14,23.14,0,0,1,7.55-5.62,22.49,22.49,0,0,1,18.85,0,23.35,23.35,0,0,1,7.55,5.62,25.93,25.93,0,0,1,5,8.52,32.24,32.24,0,0,1,0,21.3"/><path class="cls-3" d="M520.92,485.52a46.41,46.41,0,0,0-10-14.89,47.57,47.57,0,0,0-15-9.95A46.43,46.43,0,0,0,477.6,457H439.55v93.46H477.6A46.92,46.92,0,0,0,496,546.86a45.85,45.85,0,0,0,25-24.7A45.4,45.4,0,0,0,524.59,504a46.59,46.59,0,0,0-3.67-18.49m-21.89,29a27.08,27.08,0,0,1-4.94,8.54,23.27,23.27,0,0,1-7.41,5.67,20.58,20.58,0,0,1-9.08,2.07H462.51v-54.2H477.6a20.1,20.1,0,0,1,9.08,2.13,23.85,23.85,0,0,1,7.41,5.81,27.8,27.8,0,0,1,4.94,8.68,31.54,31.54,0,0,1,1.8,10.75,30.6,30.6,0,0,1-1.8,10.55"/><path class="cls-3" d="M821.77,485.44a46.16,46.16,0,0,0-43-28.34,46.88,46.88,0,0,0-18.39,3.62,45.14,45.14,0,0,0-24.72,24.72,47.89,47.89,0,0,0,0,36.53,45.14,45.14,0,0,0,24.72,24.72,48.37,48.37,0,0,0,36.72,0,47.06,47.06,0,0,0,24.66-61.25M800.6,514.36a26.14,26.14,0,0,1-5,8.52,23.46,23.46,0,0,1-7.55,5.61,22.49,22.49,0,0,1-18.85,0,23.36,23.36,0,0,1-7.55-5.61,26,26,0,0,1-5-8.52,32.24,32.24,0,0,1,0-21.3,25.76,25.76,0,0,1,5-8.52,23.24,23.24,0,0,1,7.55-5.62,22.49,22.49,0,0,1,18.85,0,23.35,23.35,0,0,1,7.55,5.62,25.93,25.93,0,0,1,5,8.52,32.24,32.24,0,0,1,0,21.3"/><path class="cls-3" d="M719.74,485.52a46.25,46.25,0,0,0-10-14.89,47.64,47.64,0,0,0-15-9.95A46.45,46.45,0,0,0,676.42,457h-38v93.46h38a46.94,46.94,0,0,0,18.36-3.61,45.87,45.87,0,0,0,25-24.7A45.4,45.4,0,0,0,723.41,504a46.59,46.59,0,0,0-3.67-18.49m-21.89,29a26.89,26.89,0,0,1-4.94,8.54,23.05,23.05,0,0,1-7.41,5.67,20.58,20.58,0,0,1-9.08,2.07H661.33v-54.2h15.09a20.1,20.1,0,0,1,9.08,2.13,23.62,23.62,0,0,1,7.41,5.81,27.6,27.6,0,0,1,4.94,8.68,31.54,31.54,0,0,1,1.8,10.75,30.6,30.6,0,0,1-1.8,10.55"/></g></g></svg>