<svg id="图层_1" data-name="图层 1" xmlns="http://www.w3.org/2000/svg" xmlns:xlink="http://www.w3.org/1999/xlink" viewBox="0 0 1000 1000"><defs><style>.cls-1{fill:none;}.cls-2{clip-path:url(#clip-path);}.cls-3{fill:#f3ec32;}</style><clipPath id="clip-path"><rect class="cls-1" x="66.77" y="188.12" width="845.78" height="623.76"/></clipPath></defs><title>logo2</title><g class="cls-2"><g class="cls-2"><path class="cls-3" d="M467.56,609.58a46,46,0,0,0-42.88-28.26,46.84,46.84,0,0,0-18.34,3.61,45.13,45.13,0,0,0-24.66,24.65,47.91,47.91,0,0,0,0,36.44,45.13,45.13,0,0,0,24.66,24.65,48.26,48.26,0,0,0,36.63,0A45.3,45.3,0,0,0,467.56,646a47.91,47.91,0,0,0,0-36.44m-21.12,28.84a25.9,25.9,0,0,1-4.95,8.5,23.25,23.25,0,0,1-7.54,5.6,22.45,22.45,0,0,1-18.79,0,23.11,23.11,0,0,1-7.53-5.6,25.74,25.74,0,0,1-5-8.5,32.23,32.23,0,0,1,0-21.24,25.85,25.85,0,0,1,5-8.5,23.25,23.25,0,0,1,7.53-5.6,22.45,22.45,0,0,1,18.79,0,23.4,23.4,0,0,1,7.54,5.6,26,26,0,0,1,4.95,8.5,32.23,32.23,0,0,1,0,21.24"/><path class="cls-3" d="M365.8,609.66a46.11,46.11,0,0,0-10-14.84,47.25,47.25,0,0,0-14.92-9.92,46.15,46.15,0,0,0-18.3-3.66h-38v93.2h38A47.22,47.22,0,0,0,355.82,661a46.28,46.28,0,0,0,10-14.78,45.41,45.41,0,0,0,3.66-18.11,46.55,46.55,0,0,0-3.66-18.44m-21.83,29a26.77,26.77,0,0,1-4.93,8.52,23,23,0,0,1-7.39,5.66,20.44,20.44,0,0,1-9,2.06H307.55V600.81H322.6a20,20,0,0,1,9,2.13,23.34,23.34,0,0,1,7.39,5.79,27.54,27.54,0,0,1,4.93,8.65,31.41,31.41,0,0,1,1.8,10.72,30.39,30.39,0,0,1-1.8,10.52"/><path class="cls-3" d="M665.84,609.58A46,46,0,0,0,623,581.32a46.85,46.85,0,0,0-18.35,3.61A45.15,45.15,0,0,0,580,609.58,47.78,47.78,0,0,0,580,646a45.15,45.15,0,0,0,24.65,24.65,48.26,48.26,0,0,0,36.63,0A45.3,45.3,0,0,0,665.84,646a47.91,47.91,0,0,0,0-36.44m-21.12,28.84a25.9,25.9,0,0,1-5,8.5,23.32,23.32,0,0,1-7.53,5.6,22.48,22.48,0,0,1-18.8,0,23.11,23.11,0,0,1-7.53-5.6,25.92,25.92,0,0,1-5-8.5,32.23,32.23,0,0,1,0-21.24,26,26,0,0,1,5-8.5,23.25,23.25,0,0,1,7.53-5.6,22.48,22.48,0,0,1,18.8,0,23.46,23.46,0,0,1,7.53,5.6,26,26,0,0,1,5,8.5,32.06,32.06,0,0,1,0,21.24"/><path class="cls-3" d="M564.08,609.66a46.11,46.11,0,0,0-10-14.84,47.32,47.32,0,0,0-14.91-9.92,46.23,46.23,0,0,0-18.31-3.66H482.93v93.2h37.95A47.17,47.17,0,0,0,554.1,661a46.28,46.28,0,0,0,10-14.78,45.24,45.24,0,0,0,3.67-18.11,46.38,46.38,0,0,0-3.67-18.44m-21.83,29a26.77,26.77,0,0,1-4.93,8.52,23,23,0,0,1-7.39,5.66,20.44,20.44,0,0,1-9,2.06H505.83V600.81h15.05a20,20,0,0,1,9,2.13,23.34,23.34,0,0,1,7.39,5.79,27.54,27.54,0,0,1,4.93,8.65,31.41,31.41,0,0,1,1.8,10.72,30.39,30.39,0,0,1-1.8,10.52"/><path class="cls-3" d="M516.89,369a47,47,0,0,0,3.91-7.59A44.22,44.22,0,0,0,524,347.62c1.05-9.1-1.15-16.49-6.34-18.7s-11.77,1.23-17.49,8.07c0-.45,0-.91,0-1.36,0-19-8.64-34.34-19.29-34.34s-19.3,15.37-19.3,34.34c0,1.34.05,2.67.13,4-6.48-8.87-15-13.41-21.09-10.48-7.61,3.66-8.53,17.61-2.05,31.15a77.19,77.19,0,0,0,4.84,8.11c-82.63,13.14-129.67,80-135.59,189.62H354.1c4.87-90.28,47-141.27,123-139.71C547,419.73,600.34,465.43,599.62,558h46.22c.84-109.21-53-172-129-189"/><path class="cls-3" d="M443.76,480.28a9.23,9.23,0,0,0-9.23,9.23V512.2a9.24,9.24,0,1,0,18.47,0V489.51a9.24,9.24,0,0,0-9.24-9.23"/><path class="cls-3" d="M515.37,480.28a9.23,9.23,0,0,0-9.23,9.23V512.2a9.24,9.24,0,1,0,18.47,0V489.51a9.23,9.23,0,0,0-9.24-9.23"/></g></g></svg>