<svg id="图层_1" data-name="图层 1" xmlns="http://www.w3.org/2000/svg" xmlns:xlink="http://www.w3.org/1999/xlink" viewBox="0 0 1000 1000"><defs><style>.cls-1{fill:none;}.cls-2{clip-path:url(#clip-path);}.cls-3{clip-path:url(#clip-path-2);}.cls-4{fill:#040000;}</style><clipPath id="clip-path"><rect class="cls-1" x="272.88" y="277.69" width="489.21" height="444.62"/></clipPath><clipPath id="clip-path-2"><rect class="cls-1" x="107.85" y="182.7" width="845.78" height="623.76"/></clipPath></defs><title>logo2</title><g class="cls-2"><g class="cls-3"><g class="cls-3"><path class="cls-4" d="M508.64,604.17a46,46,0,0,0-42.88-28.26,46.83,46.83,0,0,0-18.34,3.6,45.1,45.1,0,0,0-24.66,24.66,47.88,47.88,0,0,0,0,36.43,45.13,45.13,0,0,0,24.66,24.65,48.26,48.26,0,0,0,36.63,0,45.3,45.3,0,0,0,24.59-24.65,47.88,47.88,0,0,0,0-36.43M487.52,633a25.9,25.9,0,0,1-4.95,8.5,23.25,23.25,0,0,1-7.54,5.6,22.45,22.45,0,0,1-18.79,0,23.11,23.11,0,0,1-7.53-5.6,25.74,25.74,0,0,1-5-8.5,32.23,32.23,0,0,1,0-21.24,25.85,25.85,0,0,1,5-8.5,23.25,23.25,0,0,1,7.53-5.6,22.45,22.45,0,0,1,18.79,0,23.4,23.4,0,0,1,7.54,5.6,26,26,0,0,1,4.95,8.5,32.23,32.23,0,0,1,0,21.24"/><path class="cls-4" d="M406.88,604.24a46.11,46.11,0,0,0-10-14.84A47.49,47.49,0,0,0,382,579.48a46.23,46.23,0,0,0-18.31-3.66H325.73V669h37.95a47.17,47.17,0,0,0,33.22-13.45,46.28,46.28,0,0,0,10-14.78,45.41,45.41,0,0,0,3.67-18.11,46.59,46.59,0,0,0-3.67-18.44m-21.83,29a26.66,26.66,0,0,1-4.93,8.52,22.81,22.81,0,0,1-7.39,5.66,20.45,20.45,0,0,1-9.05,2.07H348.63V595.39h15.05a20,20,0,0,1,9.05,2.13,23.34,23.34,0,0,1,7.39,5.79,27.48,27.48,0,0,1,4.93,8.66,31.35,31.35,0,0,1,1.8,10.71,30.39,30.39,0,0,1-1.8,10.52"/><path class="cls-4" d="M706.92,604.17a46,46,0,0,0-42.87-28.26,46.85,46.85,0,0,0-18.35,3.6,45.13,45.13,0,0,0-24.65,24.66,47.76,47.76,0,0,0,0,36.43,45.15,45.15,0,0,0,24.65,24.65,48.26,48.26,0,0,0,36.63,0,45.3,45.3,0,0,0,24.59-24.65,47.88,47.88,0,0,0,0-36.43M685.8,633a25.9,25.9,0,0,1-4.95,8.5,23.21,23.21,0,0,1-7.53,5.6,22.48,22.48,0,0,1-18.8,0,23.11,23.11,0,0,1-7.53-5.6,25.92,25.92,0,0,1-5-8.5,32.23,32.23,0,0,1,0-21.24,26,26,0,0,1,5-8.5,23.25,23.25,0,0,1,7.53-5.6,22.48,22.48,0,0,1,18.8,0,23.36,23.36,0,0,1,7.53,5.6,26,26,0,0,1,4.95,8.5,32.06,32.06,0,0,1,0,21.24"/><path class="cls-4" d="M605.17,604.24a46,46,0,0,0-10-14.84,47.49,47.49,0,0,0-14.91-9.92A46.23,46.23,0,0,0,562,575.82H524V669h38a47.17,47.17,0,0,0,33.22-13.45,46.15,46.15,0,0,0,10-14.78,45.41,45.41,0,0,0,3.66-18.11,46.58,46.58,0,0,0-3.66-18.44m-21.84,29a26.66,26.66,0,0,1-4.93,8.52,22.81,22.81,0,0,1-7.39,5.66,20.42,20.42,0,0,1-9,2.07h-15V595.39h15a20,20,0,0,1,9,2.13,23.34,23.34,0,0,1,7.39,5.79,27.48,27.48,0,0,1,4.93,8.66,31.35,31.35,0,0,1,1.8,10.71,30.39,30.39,0,0,1-1.8,10.52"/><path class="cls-4" d="M558,363.57a47.34,47.34,0,0,0,3.91-7.58,44.34,44.34,0,0,0,3.24-13.79c1-9.1-1.15-16.49-6.34-18.69s-11.77,1.22-17.49,8.06c0-.45,0-.9,0-1.36,0-19-8.64-34.34-19.29-34.34s-19.3,15.37-19.3,34.34c0,1.34,0,2.67.13,4-6.48-8.86-15-13.41-21.09-10.48-7.61,3.66-8.53,17.61-2.05,31.16a79.3,79.3,0,0,0,4.84,8.11C401.92,376.1,354.88,442.92,349,552.58h46.22c4.87-90.28,47-141.27,123-139.71C588,414.31,641.42,460,640.7,552.58h46.22c.84-109.21-53-172-128.95-189"/><path class="cls-4" d="M484.84,474.86a9.23,9.23,0,0,0-9.23,9.23v22.69a9.24,9.24,0,1,0,18.47,0V484.09a9.23,9.23,0,0,0-9.24-9.23"/><path class="cls-4" d="M556.45,474.86a9.23,9.23,0,0,0-9.23,9.23v22.69a9.24,9.24,0,1,0,18.47,0V484.09a9.23,9.23,0,0,0-9.24-9.23"/></g></g></g></svg>