<svg id="图层_1" data-name="图层 1" xmlns="http://www.w3.org/2000/svg" xmlns:xlink="http://www.w3.org/1999/xlink" viewBox="0 0 1000 1000"><defs><style>.cls-1{fill:none;}.cls-2{clip-path:url(#clip-path);}.cls-3{fill:#fff;}.cls-4{clip-path:url(#clip-path-3);}.cls-5{clip-path:url(#clip-path-4);}</style><clipPath id="clip-path"><rect class="cls-1" x="94.35" y="162.33" width="845.78" height="623.76"/></clipPath><clipPath id="clip-path-3"><rect class="cls-1" x="275.57" y="513.48" width="453.34" height="171.19"/></clipPath><clipPath id="clip-path-4"><rect class="cls-1" x="197.8" y="380.71" width="615.53" height="453.95"/></clipPath></defs><title>logo2</title><g class="cls-2"><g class="cls-2"><path class="cls-3" d="M544.46,343.2a46.64,46.64,0,0,0,3.91-7.59,43.73,43.73,0,0,0,3.24-13.78c1-9.11-1.15-16.49-6.33-18.7s-11.77,1.23-17.49,8.07c0-.45,0-.91,0-1.36,0-19-8.64-34.34-19.3-34.34s-19.3,15.37-19.3,34.34c0,1.34.05,2.66.14,4-6.49-8.87-15-13.41-21.09-10.48-7.61,3.66-8.53,17.61-2.06,31.15a78.29,78.29,0,0,0,4.85,8.11c-82.64,13.14-129.68,80-135.6,189.62h46.22c4.88-90.28,47-141.27,123-139.71,69.84,1.44,123.21,47.14,122.49,139.71h46.22c.85-109.21-53-172-128.95-189"/><path class="cls-3" d="M471.34,454.49a9.24,9.24,0,0,0-9.24,9.23v22.69a9.24,9.24,0,1,0,18.47,0V463.72a9.23,9.23,0,0,0-9.23-9.23"/><path class="cls-3" d="M543,454.49a9.24,9.24,0,0,0-9.24,9.23v22.69a9.24,9.24,0,1,0,18.48,0V463.72a9.24,9.24,0,0,0-9.24-9.23"/></g></g><g class="cls-4"><g class="cls-5"><g class="cls-5"><path class="cls-3" d="M499.92,592.72a46.62,46.62,0,0,0-25.33-25.4,49.84,49.84,0,0,0-37.74,0,46.53,46.53,0,0,0-25.4,25.4,49.21,49.21,0,0,0,0,37.54,46.5,46.5,0,0,0,25.4,25.41,49.84,49.84,0,0,0,37.74,0,48.37,48.37,0,0,0,25.33-62.95m-21.75,29.72a26.71,26.71,0,0,1-5.11,8.75A23.76,23.76,0,0,1,465.3,637a23.16,23.16,0,0,1-19.36,0,23.76,23.76,0,0,1-7.76-5.77,26.71,26.71,0,0,1-5.11-8.75,33.13,33.13,0,0,1,0-21.89,26.71,26.71,0,0,1,5.11-8.75,23.79,23.79,0,0,1,7.76-5.78,23.16,23.16,0,0,1,19.36,0,23.79,23.79,0,0,1,7.76,5.78,26.71,26.71,0,0,1,5.11,8.75,33.13,33.13,0,0,1,0,21.89"/><path class="cls-3" d="M395.08,592.8a47.34,47.34,0,0,0-10.29-15.29,48.62,48.62,0,0,0-15.36-10.22,47.52,47.52,0,0,0-18.86-3.78h-39.1v96h39.1a48.35,48.35,0,0,0,18.86-3.7,47.15,47.15,0,0,0,25.65-25.38,46.66,46.66,0,0,0,3.78-18.66,47.88,47.88,0,0,0-3.78-19m-22.49,29.84a27.69,27.69,0,0,1-5.08,8.78,23.78,23.78,0,0,1-7.61,5.83,21.12,21.12,0,0,1-9.33,2.13H335.06v-55.7h15.51a20.52,20.52,0,0,1,9.33,2.2,24.17,24.17,0,0,1,7.61,6,28.52,28.52,0,0,1,5.08,8.92,32.47,32.47,0,0,1,1.85,11,31.44,31.44,0,0,1-1.85,10.84"/><path class="cls-3" d="M704.23,592.72a47.4,47.4,0,0,0-44.18-29.11,48.12,48.12,0,0,0-18.9,3.71,46.53,46.53,0,0,0-25.4,25.4,49.21,49.21,0,0,0,0,37.54,46.5,46.5,0,0,0,25.4,25.41,49.84,49.84,0,0,0,37.74,0,46.65,46.65,0,0,0,25.34-25.41,49.34,49.34,0,0,0,0-37.54m-21.76,29.72a26.71,26.71,0,0,1-5.11,8.75A23.76,23.76,0,0,1,669.6,637a23.16,23.16,0,0,1-19.36,0,23.76,23.76,0,0,1-7.76-5.77,26.71,26.71,0,0,1-5.11-8.75,33.13,33.13,0,0,1,0-21.89,26.71,26.71,0,0,1,5.11-8.75,23.79,23.79,0,0,1,7.76-5.78,23.16,23.16,0,0,1,19.36,0,23.79,23.79,0,0,1,7.76,5.78,26.71,26.71,0,0,1,5.11,8.75,33.13,33.13,0,0,1,0,21.89"/><path class="cls-3" d="M599.38,592.8a47.48,47.48,0,0,0-10.28-15.29,48.78,48.78,0,0,0-15.37-10.22,47.52,47.52,0,0,0-18.86-3.78h-39.1v96h39.1a48.57,48.57,0,0,0,34.23-13.85,47.65,47.65,0,0,0,10.28-15.23,46.66,46.66,0,0,0,3.78-18.66,47.88,47.88,0,0,0-3.78-19m-22.49,29.84a27.69,27.69,0,0,1-5.08,8.78,23.78,23.78,0,0,1-7.61,5.83,21.12,21.12,0,0,1-9.33,2.13h-15.5v-55.7h15.5a20.52,20.52,0,0,1,9.33,2.2,24.17,24.17,0,0,1,7.61,6,28.52,28.52,0,0,1,5.08,8.92,32.47,32.47,0,0,1,1.85,11,31.44,31.44,0,0,1-1.85,10.84"/></g></g></g></svg>